<svg version="1.1" id="Layer_1" xmlns="http://www.w3.org/2000/svg" xmlns:xlink="http://www.w3.org/1999/xlink" x="0px" y="0px"
	 width="100%" viewBox="0 0 693 605" enable-background="new 0 0 693 605" xml:space="preserve">
<path fill="#30363A" opacity="1.000000" stroke="none"
	d="
M220.250397,543.408691
	C215.889755,559.178345 211.723328,574.577209 207.368896,589.922791
	C204.257111,600.889160 198.502457,602.943726 188.747833,596.896545
	C187.984375,596.423218 186.932236,596.265442 186.004242,596.230957
	C177.497635,595.914917 173.442551,590.836365 175.359863,582.369141
	C177.781097,571.676453 180.473755,561.045227 183.051285,550.387939
	C196.759659,493.707886 210.224625,436.967468 224.268600,380.370697
	C232.749603,346.192505 241.969147,312.194000 251.162277,278.197357
	C257.402283,255.121490 264.174408,232.189529 270.697784,209.190155
	C270.958160,208.272125 271.107544,207.322617 270.524506,206.044601
	C266.313263,213.303131 262.078857,220.548309 257.895752,227.823013
	C249.826874,241.855377 241.846573,255.938995 233.722794,269.939423
	C216.177414,300.176910 198.649628,330.425171 180.959335,360.577911
	C154.646255,405.427948 128.173355,450.184174 101.817383,495.009094
	C83.503410,526.156555 65.258453,557.344666 47.012341,588.532043
	C42.456589,596.319031 38.815086,597.603882 30.335476,594.554443
	C29.317316,594.188232 27.628981,594.830688 26.591606,595.518799
	C21.656368,598.792114 17.120468,598.857666 13.377341,595.474487
	C9.568552,592.031982 8.558755,586.692139 11.275306,581.897217
	C25.441225,556.893188 39.582127,531.873352 53.982002,507.003906
	C67.634666,483.425018 81.542679,459.993225 95.435715,436.554443
	C114.032677,405.179688 132.773514,373.890167 151.354446,342.505951
	C162.038330,324.460266 172.634583,306.360809 183.080185,288.176392
	C197.966919,262.260559 212.793182,236.308548 227.431778,210.252029
	C240.387360,187.191269 253.314865,164.107437 265.777496,140.778809
	C281.662018,111.044785 297.101685,81.072571 312.646606,51.158089
	C315.546997,45.576672 320.166565,44.186516 326.009155,45.013699
	C327.465088,41.136963 328.929230,37.437683 330.246704,33.686897
	C332.645752,26.857029 338.042328,23.465376 343.846649,25.242609
	C349.528046,26.982204 351.224548,32.334923 350.392792,39.392723
	C346.312378,74.016678 332.323303,106.036964 324.489990,139.678375
	C316.657837,173.314728 307.637238,206.675217 299.072571,240.139984
	C279.716583,315.770050 260.405304,391.411743 240.893372,467.001587
	C234.334045,492.412659 227.223053,517.681335 220.250397,543.408691
z"/>
<path fill="#30363B" opacity="1.000000" stroke="none"
	d="
M596.000000,595.197998
	C567.886536,594.481079 540.275208,593.642334 512.657715,593.150269
	C507.169952,593.052551 501.669312,594.637146 496.155121,594.804565
	C490.162170,594.986511 486.643524,592.231873 485.163361,587.290833
	C483.862976,582.950073 485.824524,578.850525 490.338470,575.488647
	C491.620026,574.534180 492.803009,572.821777 493.109955,571.274231
	C505.982666,506.366821 522.388977,442.308228 539.400757,378.397675
	C544.912292,357.691589 550.594421,337.027252 556.506042,316.432129
	C570.761230,266.769348 585.342285,217.199875 599.520996,167.515442
	C613.780151,117.548683 627.709595,67.487846 641.789062,17.469797
	C644.088440,9.301175 647.492554,6.379756 653.938110,6.987578
	C659.995544,7.558796 665.252136,13.362163 665.824951,20.290506
	C666.014771,22.586092 665.854858,24.910593 666.699646,27.353436
	C667.721130,23.575800 668.555237,19.734617 669.809570,16.035955
	C671.540222,10.933149 675.526245,7.925606 680.135803,8.191311
	C684.673950,8.452904 688.285217,10.681339 689.438721,15.140274
	C690.107178,17.724577 689.772095,20.778528 689.149658,23.448875
	C686.925964,32.987835 683.497498,42.331779 682.180786,51.975590
	C680.342834,65.436440 679.845764,79.091698 679.035400,92.679298
	C677.025757,126.375130 675.099792,160.076279 673.262085,193.781937
	C671.623169,223.840210 670.025818,253.901718 668.629028,283.971985
	C666.676697,326.002899 664.690796,368.034698 663.169373,410.082397
	C662.032227,441.511536 661.469788,472.963989 660.907776,504.410645
	C660.467468,529.050110 660.432434,553.696655 660.190796,578.339844
	C660.107788,586.808472 650.026001,595.852356 641.392212,595.653381
	C628.263672,595.350952 615.128479,595.333191 601.996155,595.200562
	C600.164307,595.182068 598.332031,595.197998 596.000000,595.197998
z"/>
<path fill="#7C858D" opacity="1.000000" stroke="none"
	d="
M387.112061,363.984924
	C395.941406,334.450317 404.100830,305.121429 413.462921,276.181641
	C432.279510,218.016266 451.890991,160.108505 470.875305,101.996719
	C477.171875,82.722610 482.508453,63.135944 488.377838,43.720562
	C490.060730,38.153641 491.880768,32.611534 493.989716,27.195026
	C495.889008,22.316973 500.352783,19.719347 504.950836,20.226238
	C514.998535,21.333897 518.236938,23.240795 519.129639,29.652267
	C519.493469,32.265457 518.798462,35.254894 517.835327,37.788006
	C509.694061,59.200474 500.469482,80.250244 493.376190,101.997948
	C486.483154,123.131615 481.472229,144.898300 476.082214,166.498672
	C467.550751,200.688248 459.447662,234.984467 451.064484,269.211365
	C433.978790,338.968628 417.017303,408.757141 399.626953,478.438538
	C390.167114,516.342957 379.986786,554.068359 369.938385,591.823120
	C369.182098,594.664795 367.363129,597.644836 365.173340,599.584045
	C361.964050,602.426147 357.775970,602.580261 354.094879,600.098145
	C349.990295,597.330505 348.278259,593.296509 349.544739,588.385864
	C352.866821,575.504822 356.343903,562.663818 359.667633,549.783203
	C368.972321,513.724243 378.234436,477.654388 387.493286,441.583649
	C387.841797,440.225891 387.981110,438.814453 387.236237,437.199402
	C384.864899,445.106934 382.457184,453.003723 380.128510,460.923767
	C369.720917,496.321198 359.317780,531.719910 348.967102,567.133972
	C347.759766,571.264648 346.126373,575.049011 341.906250,576.789368
	C334.217041,579.960144 326.414307,573.460693 328.208099,564.895691
	C329.905762,556.789612 332.642853,548.898010 334.987732,540.931213
	C352.311371,482.073669 369.651367,423.220886 387.112061,363.984924
z"/>
</svg>